<?xml version="1.0" encoding="iso-8859-1"?>
<!-- Generator: Adobe Illustrator 19.0.0, SVG Export Plug-In . SVG Version: 6.00 Build 0)  -->
<svg version="1.1" id="Capa_1" xmlns="http://www.w3.org/2000/svg" xmlns:xlink="http://www.w3.org/1999/xlink" x="0px" y="0px"
	 viewBox="0 0 512.001 512.001" style="enable-background:new 0 0 512.001 512.001;" xml:space="preserve">
<circle style="fill:#FF3C3C;" cx="256.001" cy="256" r="256"/>
<path style="fill:#DE3434;" d="M417.387,155.72l-0.014,0.014c-0.624-0.575-1.295-1.081-1.975-1.471L264.306,67.607
	c-3.36-1.928-7.698-2.001-11.228,0.105c-0.011,0.007-0.024,0.011-0.036,0.018l-0.02,0.012c-0.023,0.014-0.046,0.028-0.069,0.042
	L101.95,158.83c-3.372,2.033-5.416,5.699-5.373,9.636c0.042,3.937,2.167,7.557,5.581,9.516l63.761,36.569
	c-0.783,1.343-73.009,125.301-73.445,126.067c-2.4,4.229-1.844,9.849,2.007,13.521l157.815,157.815
	c1.235,0.018,2.466,0.047,3.705,0.047c141.385,0,256-114.615,256-256c0-1.919-0.031-3.83-0.073-5.739L417.387,155.72z"/>
<path style="fill:#FFFFFF;" d="M420.604,161.031c-0.75-2.753-2.571-5.257-5.206-6.768c-159.278-91.35-151.59-87.142-153.659-87.715
	c-1.411-0.39-2.821-0.505-4.327-0.317c-0.103,0.013-0.206,0.021-0.309,0.037c-3.768,0.578,0.641-1.373-155.154,92.562
	c-3.372,2.033-5.416,5.699-5.373,9.636c0.042,3.937,2.167,7.557,5.581,9.516l63.761,36.569L92.532,340.507
	c-0.021,0.036-0.037,0.074-0.057,0.11c-3.034,5.352-1.115,12.113,4.129,15.12c162.404,93.143,154.604,91.212,162.356,86.533
	l151.092-91.1c3.372-2.033,5.416-5.699,5.373-9.636c-0.042-3.937-2.167-7.557-5.581-9.516l-63.761-36.569
	c77.261-132.604,73.209-125.626,73.596-126.359C421.037,166.524,421.298,163.631,420.604,161.031z M247.669,235.821l-51.288-29.415
	l51.288-88.026V235.821z M247.669,416.763l-71.15-40.807l-52.474-30.096l123.624-74.538V416.763z M269.888,277.365l45.733,26.229
	l-45.733,78.492V277.365z M269.888,96.423l65.595,37.621l52.474,30.096l-118.069,71.189V96.423z M129.6,168.105l97.705-58.911
	l-50.199,86.157L129.6,168.105z M234.018,253.607l-100.414,60.544l51.591-88.546L234.018,253.607z M382.402,341.895l-97.705,58.911
	l50.199-86.157L382.402,341.895z M277.984,256.393l100.414-60.544l-51.591,88.546L277.984,256.393z"/>
<g>
</g>
<g>
</g>
<g>
</g>
<g>
</g>
<g>
</g>
<g>
</g>
<g>
</g>
<g>
</g>
<g>
</g>
<g>
</g>
<g>
</g>
<g>
</g>
<g>
</g>
<g>
</g>
<g>
</g>
</svg>
